<svg height="496pt" viewBox="-21 0 496 496" width="496pt" xmlns="http://www.w3.org/2000/svg"><g fill="#f0bc5e"><path d="m178.640625 112 7.597656 68.480469c-28.160156-16.320313-48.558593-46.960938-60.238281-68.480469zm0 0"/><path d="m274.640625 112h52.640625c-11.679688 21.519531-32.082031 52.160156-60.242188 68.480469zm0 0"/><path d="m234.640625 136 24 48 .320313.71875c-9.921876 4.5625-20.722657 7.28125-32.320313 7.28125-11.601563 0-22.402344-2.71875-32.320313-7.28125l.320313-.71875 24-48 .078125-.558594c2.5625.398438 5.203125.558594 7.921875.558594s5.359375-.160156 7.917969-.558594zm0 0"/><path d="m379.28125 101.921875 63.359375 18.078125c-1.039063 2.640625-2.082031 5.359375-49.039063 87.121094l-53.523437-45.921875c10.480469-13.4375 20.242187-27.4375 29.203125-42l9.359375-15.199219zm0 0"/><path d="m226.640625 328-16.5625-6.640625c-22.398437-8.960937-43.679687-20.160156-63.519531-33.199219l.082031-.160156 32-56 1.597656-1.921875 46.402344 33.921875c4.558594-2.878906 9.039063-5.839844 13.4375-8.960938 11.363281-7.757812 22.402344-16.078124 32.960937-24.960937l1.601563 1.921875 32 56 .078125.160156c-19.839844 13.039063-41.117188 24.238282-63.519531 33.199219zm0 0"/><path d="m113.199219 161.199219-53.519531 45.921875c-20.238282-26.320313-36.800782-55.601563-49.039063-87.121094l63.359375-18.078125.640625 2.078125 9.359375 15.199219c8.960938 14.5625 18.71875 28.5625 29.199219 42zm0 0"/></g><path d="m50.640625 136h16v16h-16zm0 0"/><path d="m114.640625 216h16v16h-16zm0 0"/><path d="m218.640625 288h16v16h-16zm0 0"/><path d="m450.097656 122.894531 3.183594-8.175781-153.226562-43.78125c-10.253907-2.929688-17.414063-12.425781-17.414063-23.082031v-47.855469h-112v47.855469c0 10.65625-7.160156 20.152343-17.410156 23.082031l-153.230469 43.78125 3.183594 8.175781c8.480468 21.808594 19.097656 42.554688 31.457031 62.105469v72.472656c-9.289063 3.3125-16 12.113282-16 22.527344 0 13.230469 10.765625 24 24 24 13.230469 0 24-10.769531 24-24 0-10.414062-6.710937-19.214844-16-22.527344v-49.199218c16.375 21.941406 35.175781 41.957031 56 59.695312v69.503906c-9.289063 3.3125-16 12.113282-16 22.527344 0 13.230469 10.765625 24 24 24 13.230469 0 24-10.769531 24-24 0-10.414062-6.710937-19.214844-16-22.527344v-56.601562c25.726563 19.527344 54.070313 35.777344 84.488281 47.9375l11.511719 4.605468v35.136719c-31.519531 3.960938-56 30.875-56 63.449219 0 35.289062 28.710937 64 64 64s64-28.710938 64-64c0-32.574219-24.480469-59.488281-56-63.449219v-35.136719l11.511719-4.605468c30.40625-12.160156 58.757812-28.410156 84.488281-47.9375v56.601562c-9.289063 3.3125-16 12.113282-16 22.527344 0 13.230469 10.765625 24 24 24 13.230469 0 24-10.769531 24-24 0-10.414062-6.710937-19.214844-16-22.527344v-69.503906c20.824219-17.738281 39.625-37.761719 56-59.695312v49.199218c-9.289063 3.3125-16 12.113282-16 22.527344 0 13.230469 10.765625 24 24 24 13.230469 0 24-10.769531 24-24 0-10.414062-6.710937-19.214844-16-22.527344v-72.472656c12.359375-19.550781 22.976563-40.296875 31.457031-62.105469zm-407.457031 165.105469c-4.417969 0-8-3.585938-8-8s3.582031-8 8-8c4.414063 0 8 3.585938 8 8s-3.585937 8-8 8zm72 80c-4.417969 0-8-3.585938-8-8s3.582031-8 8-8c4.414063 0 8 3.585938 8 8s-3.585937 8-8 8zm224 0c-4.417969 0-8-3.585938-8-8s3.582031-8 8-8c4.414063 0 8 3.585938 8 8s-3.585937 8-8 8zm72-80c-4.417969 0-8-3.585938-8-8s3.582031-8 8-8c4.414063 0 8 3.585938 8 8s-3.585937 8-8 8zm-168-64c0 13.007812-7.328125 24-16 24s-16-10.992188-16-24 7.328125-24 16-24 16 10.992188 16 24zm-47.367187 7.769531c-41.289063-32.457031-77.015626-72.152343-104.480469-116.800781l-5-8.121094 25.128906-7.175781c10.34375 22.792969 41.710937 82.28125 92.503906 96.960937-5.410156 7.167969-8.785156 16.757813-8.785156 27.367188 0 2.65625.230469 5.246094.632813 7.769531zm54.582031-35.136719c50.792969-14.679687 82.160156-74.167968 92.503906-96.960937l25.128906 7.175781-5 8.121094c-27.464843 44.648438-63.191406 84.335938-104.480469 116.800781.398438-2.523437.632813-5.113281.632813-7.769531 0-10.609375-3.375-20.199219-8.785156-27.367188zm-63.214844-148.777343v-31.855469h80v31.855469c0 12.640625 6.113281 24.207031 15.75 31.640625-2.910156 8.550781-18.503906 48.503906-55.75 48.503906-37.5625 0-52.847656-39.742188-55.761719-48.488281 9.640625-7.433594 15.761719-19.007813 15.761719-31.65625zm-30.191406 38.808593c5.160156 14.191407 24.566406 57.335938 70.191406 57.335938 45.632813 0 65.03125-43.144531 70.191406-57.335938l29.902344 8.542969c-11.855469 25.167969-47.078125 88.792969-100.09375 88.792969-52.921875 0-88.207031-63.632812-100.089844-88.792969zm70.191406 297.335938c12.101563 0 23.144531 4.535156 31.597656 11.960938-1.972656 15.765624-15.300781 28.039062-31.597656 28.039062s-29.625-12.273438-31.601563-28.039062c8.457032-7.425782 19.496094-11.960938 31.601563-11.960938zm0 96c-26.472656 0-48-21.527344-48-48 0-7.144531 1.605469-13.902344 4.421875-20 7.601562 16.496094 24.25 28 43.578125 28s35.976563-11.503906 43.574219-28c2.816406 6.097656 4.425781 12.855469 4.425781 20 0 26.472656-21.527344 48-48 48zm13.574219-166.046875-13.574219 5.429687-13.578125-5.429687c-86.390625-34.554687-155.824219-103.050781-191.679688-188.707031l48.433594-13.832032 7.351563 11.945313c36.382812 59.136719 86.585937 110.105469 145.175781 147.394531l4.296875 2.734375 4.296875-2.734375c58.589844-37.289062 108.796875-88.257812 145.175781-147.394531l7.351563-11.945313 48.421875 13.832032c-35.847657 85.65625-105.277344 154.152344-191.671875 188.707031zm0 0"/><path d="m386.640625 136h16v16h-16zm0 0"/><path d="m322.640625 216h16v16h-16zm0 0"/></svg>