<svg height="496pt" viewBox="0 0 496 496" width="496pt" xmlns="http://www.w3.org/2000/svg"><path d="m431.726562 129.246094-160.070312-101.855469c.160156-1.117187.34375-2.230469.34375-3.390625 0-13.230469-10.769531-24-24-24s-24 10.769531-24 24c0 1.855469.257812 3.640625.65625 5.367188l-156.953125 99.878906 8.59375 13.507812 157.007813-99.921875c4.070312 3.191407 9.136718 5.167969 14.695312 5.167969 6.257812 0 11.910156-2.464844 16.183594-6.398438l158.945312 101.140626zm-183.726562-97.246094c-4.40625 0-8-3.59375-8-8s3.59375-8 8-8 8 3.59375 8 8-3.59375 8-8 8zm0 0"/><path d="m472 128h-448c-13.230469 0-24 10.769531-24 24v320c0 13.230469 10.769531 24 24 24h448c13.230469 0 24-10.769531 24-24v-320c0-13.230469-10.769531-24-24-24zm-16 328h-416v-288h416zm0 0" fill="#f0bc5e"/><path d="m32 160v304h432v-304zm416 104h-70.335938c-14.34375-21.945312-38.183593-37.105469-65.664062-39.59375v-48.40625h136zm-152-39.609375c-30.167969 2.707031-56.488281 20.546875-70.238281 47.546875l-25.761719-12.882812v-83.054688h96zm-34.734375 83.183594c1.6875.851562 2.734375 2.546875 2.734375 4.425781s-1.046875 3.574219-2.734375 4.425781l-134.113281 67.054688c-3.121094 1.566406-7.152344-.945313-7.152344-4.425781v-134.109376c0-2.730468 2.214844-4.945312 4.945312-4.945312.757813 0 1.527344.175781 2.207032.519531zm7.359375-14.175781c6.816406-13.015626 20.285156-21.398438 35.375-21.398438 22.054688 0 40 17.945312 40 40s-17.945312 40-40 40c-15.078125 0-28.558594-8.382812-35.375-21.398438 7.007812-3.617187 11.375-10.699218 11.375-18.601562s-4.367188-14.984375-11.375-18.601562zm-42.863281 58.664062c13.75 27 40.070312 44.839844 70.238281 47.539062v48.398438h-96v-83.054688zm78.238281 31.9375c-27.3125 0-51.542969-15.214844-63.808594-39.152344l14.121094-7.0625c9.496094 18.382813 28.472656 30.214844 49.6875 30.214844 30.878906 0 56-25.128906 56-56s-25.121094-56-56-56c-21.214844 0-40.191406 11.832031-49.6875 30.207031l-14.121094-7.0625c12.265625-23.929687 36.496094-39.144531 63.808594-39.144531 39.695312 0 72 32.296875 72 72s-32.304688 72-72 72zm81.886719-104h62.113281v64h-62.113281c3.898437-9.9375 6.113281-20.703125 6.113281-32s-2.214844-22.0625-6.113281-32zm-201.886719-104v75.054688l-49.6875-24.839844c-2.898438-1.445313-6.136719-2.214844-9.367188-2.214844-11.554687 0-20.945312 9.390625-20.945312 20.945312v19.054688h-56v-88zm-80 168h-56v-64h56zm-56 16h56v19.054688c0 11.546874 9.390625 20.945312 20.945312 20.945312 3.230469 0 6.46875-.769531 9.367188-2.207031l49.6875-24.847657v75.054688h-136zm264 88v-48.40625c27.480469-2.488281 51.3125-17.65625 65.664062-39.59375h70.335938v88zm0 0"/><path d="m152 320h88v-16h-88v-40h-16v96h16zm0 0"/></svg>