<svg height="512pt" viewBox="-112 0 512 512" width="512pt" xmlns="http://www.w3.org/2000/svg"><path d="m0 145.691406v-135.390625c0-5.6875 4.613281-10.300781 10.300781-10.300781h266.617188c5.691406 0 10.300781 4.613281 10.300781 10.300781v135.390625zm0 0" fill="#a2abb8"/><path d="m0 249.757812v251.941407c0 5.6875 4.613281 10.300781 10.300781 10.300781h266.617188c5.691406 0 10.300781-4.613281 10.300781-10.300781v-251.941407zm0 0" fill="#f76c57"/><path d="m268.488281 249.757812v262.242188h8.429688c5.691406 0 10.300781-4.613281 10.300781-10.300781v-251.941407zm0 0" fill="#e5554e"/><path d="m287.21875 328.847656h-73.367188c-15.929687-21.46875-41.457031-35.382812-70.242187-35.382812s-54.3125 13.914062-70.238281 35.382812h-73.371094v104.0625h73.371094c15.925781 21.46875 41.453125 35.382813 70.238281 35.382813s54.3125-13.914063 70.242187-35.382813h73.367188zm0 0" fill="#def4f8"/><path d="m268.488281 328.847656h18.730469v104.0625h-18.730469zm0 0" fill="#bce8f1"/><path d="m26.535156 189.398438v-43.707032h46.832032v43.707032zm0 0" fill="#bce8f1"/><path d="m73.367188 78.984375v66.707031h-46.832032v-66.707031c0-5.6875 4.613282-10.300781 10.304688-10.300781h26.226562c5.6875 0 10.300782 4.613281 10.300782 10.300781zm0 0" fill="#fcb54c"/><path d="m60.878906 68.683594v77.007812h12.488282v-66.707031c0-5.6875-4.613282-10.300781-10.304688-10.300781zm0 0" fill="#fba72d"/><path d="m73.367188 189.398438v-66.601563h46.828124v66.601563zm0 0" fill="#def4f8"/><path d="m107.707031 122.796875h12.488281v66.601563h-12.488281zm0 0" fill="#bce8f1"/><path d="m120.195312 56.089844v66.707031h-46.828124v-66.707031c0-5.691406 4.609374-10.300782 10.300781-10.300782h26.226562c5.6875 0 10.300781 4.613282 10.300781 10.300782zm0 0" fill="#fcb54c"/><path d="m107.707031 45.789062v77.007813h12.488281v-66.707031c0-5.691406-4.609374-10.300782-10.300781-10.300782zm0 0" fill="#fba72d"/><path d="m120.195312 189.398438v-112.390626h46.828126v112.390626zm0 0" fill="#def4f8"/><path d="m154.535156 77.007812h12.488282v112.390626h-12.488282zm0 0" fill="#bce8f1"/><path d="m167.023438 10.300781v66.707031h-46.828126v-66.707031c0-5.6875 4.613282-10.300781 10.300782-10.300781h26.226562c5.6875 0 10.300782 4.613281 10.300782 10.300781zm0 0" fill="#fcb54c"/><path d="m154.535156 0v77.007812h12.488282v-66.707031c0-5.6875-4.609376-10.300781-10.300782-10.300781zm0 0" fill="#fba72d"/><path d="m167.023438 189.398438v-78.050782h46.828124v78.050782zm0 0" fill="#def4f8"/><path d="m201.367188 111.351562h12.488281v78.046876h-12.488281zm0 0" fill="#bce8f1"/><path d="m213.855469 44.644531v66.703125h-46.832031v-66.703125c0-5.691406 4.613281-10.304687 10.304687-10.304687h26.226563c5.6875 0 10.300781 4.613281 10.300781 10.304687zm0 0" fill="#fcb54c"/><path d="m201.367188 34.339844v77.007812h12.488281v-66.703125c0-5.691406-4.613281-10.304687-10.304688-10.304687zm0 0" fill="#fba72d"/><path d="m213.855469 189.398438v-43.707032h46.828125v43.707032zm0 0" fill="#bce8f1"/><path d="m260.683594 78.984375v66.707031h-46.828125v-66.707031c0-5.6875 4.609375-10.300781 10.300781-10.300781h26.226562c5.6875 0 10.300782 4.613281 10.300782 10.300781zm0 0" fill="#fcb54c"/><path d="m248.195312 68.683594v77.007812h12.488282v-66.707031c0-5.6875-4.613282-10.300781-10.300782-10.300781zm0 0" fill="#fba72d"/><path d="m245.59375 145.691406-32.257812 43.707032h-139.449219l-32.261719-43.707032h-41.625v104.066406h287.21875v-104.066406zm0 0" fill="#dce6eb"/><path d="m268.488281 145.691406v77.007813c0 5.746093-4.660156 10.40625-10.40625 10.40625h-258.082031v16.652343h287.21875v-104.066406zm0 0" fill="#c8d2dc"/><path d="m202.925781 380.878906c0 32.757813-26.554687 59.316406-59.316406 59.316406-32.757813 0-59.316406-26.558593-59.316406-59.316406 0-32.761718 26.558593-59.316406 59.316406-59.316406 32.761719 0 59.316406 26.554688 59.316406 59.316406zm0 0" fill="#ffe046"/></svg>